<svg width="35" height="35" viewBox="0 0 40 40" fill="none" xmlns="http://www.w3.org/2000/svg">
<path d="M0 34.8423C0 37.6911 2.30922 40 5.15766 40H34.8422C37.6911 40 40 37.6908 40 34.8423V5.15781C40 2.30891 37.6908 0 34.8423 0H5.15781C2.30891 0 0 2.30922 0 5.15766V34.8422V34.8423Z" fill="#563D7C"/>
<path d="M16.5872 17.6934V12.0289H21.5733C22.0483 12.0289 22.5061 12.0684 22.947 12.1477C23.388 12.2267 23.7781 12.368 24.1173 12.5716C24.4564 12.7752 24.7278 13.0578 24.9314 13.4195C25.1348 13.7814 25.2367 14.245 25.2367 14.8102C25.2367 15.8278 24.9314 16.5628 24.3208 17.015C23.7103 17.4673 22.9302 17.6934 21.9803 17.6934H16.5872V17.6934ZM11.2617 7.89062V32.1094H22.998C24.0834 32.1094 25.1406 31.9738 26.1695 31.7023C27.1984 31.4309 28.1142 31.0127 28.917 30.4473C29.7197 29.882 30.3586 29.1527 30.8334 28.2595C31.3084 27.3662 31.5458 26.3091 31.5458 25.088C31.5458 23.5728 31.1783 22.2783 30.4434 21.2042C29.7084 20.13 28.5947 19.3781 27.1022 18.9484C28.1877 18.4284 29.0075 17.7612 29.5616 16.9472C30.1155 16.1331 30.3925 15.1156 30.3925 13.8944C30.3925 12.7638 30.2059 11.8141 29.8328 11.0452C29.4597 10.2764 28.9339 9.66016 28.2555 9.19656C27.5772 8.73297 26.7631 8.39937 25.8133 8.19594C24.8636 7.99234 23.812 7.89062 22.6588 7.89062H11.2617V7.89062ZM16.5872 27.9711V21.3228H22.3873C23.5406 21.3228 24.4678 21.5884 25.1689 22.12C25.8698 22.6514 26.2205 23.5389 26.2205 24.7827C26.2205 25.4159 26.113 25.9359 25.8981 26.343C25.6833 26.75 25.395 27.0723 25.0331 27.3097C24.6714 27.5472 24.253 27.7167 23.7781 27.8186C23.3031 27.9202 22.8058 27.9711 22.2856 27.9711H16.5872V27.9711Z" fill="white"/>
</svg>
