<svg width="35" height="35" viewBox="0 0 40 40" fill="none" xmlns="http://www.w3.org/2000/svg">
<path d="M11.6862 17.0113H10.11L9.25125 21.425H10.6512C11.575 21.425 12.265 21.25 12.7213 20.8988C13.17 20.5538 13.4763 19.9675 13.6325 19.1538C13.7875 18.3725 13.7162 17.8188 13.4312 17.4938C13.1375 17.175 12.5575 17.0125 11.6862 17.0125V17.0113ZM20 9.48C8.95125 9.48 0 14.1938 0 20C0 25.8063 8.95125 30.52 20 30.52C31.0487 30.52 40 25.8063 40 20C40 14.1938 31.0487 9.48 20 9.48ZM14.5638 21.9013C14.131 22.3171 13.6102 22.6303 13.04 22.8175C12.48 22.9938 11.765 23.0913 10.8987 23.0913H8.925L8.385 25.8913H6.08625L8.1375 15.3513H12.5513C13.88 15.3513 14.85 15.6963 15.4613 16.3925C16.0675 17.0888 16.2562 18.0663 16.0075 19.3163C15.9144 19.8113 15.7435 20.2884 15.5013 20.73C15.2519 21.1674 14.9351 21.5627 14.5625 21.9013H14.5638ZM21.2762 23.0913L22.1813 18.425C22.285 17.8963 22.2462 17.5338 22.0625 17.3363C21.8875 17.1475 21.5025 17.05 20.9175 17.05H19.1013L17.93 23.0913H15.645L17.695 12.545H19.9738L19.4275 15.3513H21.4587C22.7425 15.3513 23.62 15.5725 24.1025 16.015C24.5912 16.465 24.7337 17.1863 24.5462 18.1838L23.5875 23.0925L21.2762 23.0913ZM33.9313 19.3163C33.841 19.812 33.67 20.2896 33.425 20.73C33.178 21.1669 32.8637 21.5622 32.4938 21.9013C32.0571 22.3152 31.5348 22.628 30.9637 22.8175C30.4037 22.9938 29.6875 23.0913 28.8225 23.0913H26.8563L26.31 25.8913H24.0112L26.0625 15.3513H30.4763C31.805 15.3513 32.775 15.6963 33.3862 16.4C33.9925 17.09 34.1812 18.0663 33.9325 19.3163H33.9313ZM29.61 17.0113H28.04L27.1813 21.425H28.575C29.505 21.425 30.195 21.25 30.645 20.8988C31.1 20.5538 31.4062 19.9675 31.5637 19.1538C31.7187 18.3725 31.6475 17.8188 31.3538 17.4938C31.0688 17.175 30.4825 17.0125 29.61 17.0125V17.0113Z" fill="black"/>
</svg>
